<?xml version="1.0" encoding="iso-8859-1"?>
<!-- Generator: Adobe Illustrator 19.0.0, SVG Export Plug-In . SVG Version: 6.00 Build 0)  -->
<svg version="1.1" id="Capa_1" xmlns="http://www.w3.org/2000/svg" xmlns:xlink="http://www.w3.org/1999/xlink" x="0px" y="0px"
	 viewBox="0 0 508.1 508.1" style="enable-background:new 0 0 508.1 508.1;" xml:space="preserve">
<g>
	<g>
		<path d="M254.05,331.7c-9.1,0-16.4-7.4-16.4-16.4s7.3-16.4,16.4-16.4c9.1,0,16.4,7.4,16.4,16.4h16.4c0-15.3-10.5-28-24.6-31.7
			v-13.4h-16.4v13.4c-14.1,3.7-24.6,16.4-24.6,31.7c0,18.1,14.7,32.9,32.9,32.9c9.1,0,16.4,7.4,16.4,16.4c0,9.1-7.4,16.4-16.4,16.4
			c-9.1,0-16.4-7.4-16.4-16.4h-16.4c0,15.3,10.5,28,24.6,31.7v13.6h16.4v-13.6c14.1-3.7,24.6-16.4,24.6-31.7
			C286.95,346.5,272.25,331.7,254.05,331.7z"/>
	</g>
</g>
<g>
	<g>
		<path d="M254.05,237.3c-56.6,0-102.7,46.1-102.7,102.7c0,56.6,46.1,102.8,102.7,102.8c56.6,0,102.7-46.1,102.7-102.7
			C356.75,283.5,310.65,237.3,254.05,237.3z M254.05,426.3c-47.6,0-86.3-38.7-86.3-86.3s38.7-86.3,86.3-86.3
			c47.6,0,86.3,38.7,86.3,86.3C340.35,387.6,301.65,426.3,254.05,426.3z"/>
	</g>
</g>
<g>
	<g>
		<path d="M335.15,150c5.6-4.5,9.3-11.3,9.3-19.1c0-13.6-11.1-24.6-24.6-24.6h-16.8l34.4-78.4c1.9-5.1,1.2-10.6-1.9-15.1
			c-4.3-6.2-12.5-8.7-19.6-5.9l-20.8,8.3l-35-14c-3.9-1.6-8.3-1.6-12.2,0l-35,14l-20.8-8.3c-7-2.8-15.3-0.3-19.6,5.9
			c-3.1,4.5-3.8,9.9-1.7,15.5l34.2,77.9h-16.7c-13.6,0-24.6,11.1-24.6,24.6c0,7.7,3.6,14.6,9.2,19.1c-55,50.3-92.6,156.4-92.6,227.3
			c0,117.3,99.1,130.9,173.7,130.9s173.7-13.6,173.7-130.8C427.75,306.4,390.15,200.3,335.15,150z M186.05,22.2l20.8,8.3
			c3.9,1.6,8.3,1.6,12.2,0l35-14l35,14c3.9,1.6,8.3,1.6,12.2,0l21-8.8l-37.1,84.5h-62.2L186.05,22.2z M188.35,122.7h131.5
			c4.5,0,8.2,3.7,8.2,8.2c0,4.5-3.7,8.2-8.2,8.2h-131.5c-4.5,0-8.2-3.7-8.2-8.2C180.15,126.4,183.75,122.7,188.35,122.7z
			 M254.05,491.7c-108.8,0-157.3-35.3-157.3-114.3c0-70.6,38.7-178.1,94.5-221.8h125.6c55.8,43.6,94.5,151.1,94.5,221.8
			C411.35,456.4,362.85,491.7,254.05,491.7z"/>
	</g>
</g>
<g>
</g>
<g>
</g>
<g>
</g>
<g>
</g>
<g>
</g>
<g>
</g>
<g>
</g>
<g>
</g>
<g>
</g>
<g>
</g>
<g>
</g>
<g>
</g>
<g>
</g>
<g>
</g>
<g>
</g>
</svg>
